<?xml version="1.0" encoding="UTF-8" standalone="no"?>
<svg
   xmlns:dc="http://purl.org/dc/elements/1.1/"
   xmlns:cc="http://creativecommons.org/ns#"
   xmlns:rdf="http://www.w3.org/1999/02/22-rdf-syntax-ns#"
   xmlns:svg="http://www.w3.org/2000/svg"
   xmlns="http://www.w3.org/2000/svg"
   id="svg4873"
   version="1.1"
   viewBox="0 0 189.67688 94.782692"
   height="94.782692mm"
   width="189.67688mm">
  <defs
     id="defs4867" />
  <metadata
     id="metadata4870">
    <rdf:RDF>
      <cc:Work
         rdf:about="">
        <dc:format>image/svg+xml</dc:format>
        <dc:type
           rdf:resource="http://purl.org/dc/dcmitype/StillImage" />
        <dc:title></dc:title>
      </cc:Work>
    </rdf:RDF>
  </metadata>
  <g
     transform="translate(-7.9710189,-43.989609)"
     id="layer1">
    <path
       id="path4818"
       d="m 21.424264,128.73821 c -0.268297,-0.0877 -0.561241,-0.25083 -0.6507,-0.36196 -0.0893,-0.11113 -0.562432,-0.37744 -1.051002,-0.59204 -0.593429,-0.26036 -0.824895,-0.55548 -0.697255,-0.88812 0.106763,-0.27822 0.01587,-0.49793 -0.204001,-0.49793 -0.229402,0 -0.310764,-0.21948 -0.193682,-0.52425 0.146849,-0.3834 0.06191,-0.47091 -0.31513,-0.32585 -0.485872,0.18654 -0.439833,-3.93516 0.05279,-4.73235 0.07581,-0.12264 0.152009,-1.18721 0.169869,-2.36593 0.01984,-1.17865 0.157565,-2.22048 0.310764,-2.3151 0.153199,-0.0949 0.28576,-1.3745 0.294889,-2.84407 0.01984,-3.07422 0.225036,-9.50446 0.30481,-9.50446 0.02778,0 0.123433,-0.95166 0.208367,-2.11482 0.317115,-4.337962 0.346088,-6.50712 0.08573,-6.50712 -0.147246,0 -0.2679,-0.409986 -0.2679,-0.910979 0,-0.501073 -0.164312,-1.075213 -0.364741,-1.27588 -0.50901,-0.50905 1.244367,-2.957975 2.316999,-3.236155 0.447334,-0.115891 1.141731,-0.423599 1.543065,-0.683443 0.813941,-0.52695 2.3603,-0.306398 2.362721,0.337753 9.53e-4,0.220273 0.440031,0.868393 0.97607,1.440311 0.813662,0.868036 0.974561,1.307988 0.974561,2.664912 0,2.399274 1.304337,2.418841 3.991117,0.06033 1.251074,-1.09847 3.1667,-0.808781 3.1667,0.478886 0,0.26671 0.637364,1.10494 1.416338,1.862482 1.554813,1.511949 3.132805,4.00989 3.149038,4.984803 0.03175,1.98393 1.908798,2.31553 3.032193,0.53601 0.425267,-0.67368 1.012742,-1.423686 1.305527,-1.666622 0.292905,-0.243293 0.532268,-0.626728 0.532268,-0.852756 0,-3.116176 5.892256,-7.272359 6.764182,-4.771203 0.176219,0.505954 0.666536,1.2962 1.089223,1.756036 2.565531,2.791123 2.878796,3.610227 2.881574,7.535025 0.0015,2.48932 0.444793,4.81902 1.074418,5.64987 0.197651,0.26075 0.168281,0.74401 -0.08255,1.3489 -0.344499,0.83208 -0.29211,1.09828 0.448445,2.27136 1.213013,1.9215 1.086762,3.19639 -0.650739,6.57082 -0.236943,0.46015 -0.427053,1.11903 -0.422449,1.46405 0.04644,3.44837 -2.502783,6.24437 -4.171503,4.57569 -0.113907,-0.11391 -0.475116,-0.20678 -0.803185,-0.20678 -0.328227,0 -0.596484,-0.1401 -0.596484,-0.31156 0,-0.17145 -0.497263,-0.27226 -1.105059,-0.22464 -1.16229,0.0917 -2.055806,-2.45138 -1.222458,-3.47913 0.176615,-0.21789 0.200032,-1.06089 0.05517,-1.99965 -0.13772,-0.89248 -0.202413,-1.77096 -0.143277,-1.95214 0.746787,-2.29008 0.879745,-7.79224 0.203208,-8.4046 -0.84597,-0.7656 -2.007228,-0.35204 -2.236987,0.79691 -0.102794,0.51358 -0.301635,0.9338 -0.442452,0.9338 -0.355612,0 -1.511274,2.52862 -1.784493,3.90428 -0.124226,0.62634 -0.510955,1.6078 -0.859027,2.18111 -0.348071,0.5733 -0.778855,1.81775 -0.957336,2.76552 -0.617996,3.28172 -0.693087,3.51263 -1.142088,3.51263 -0.248056,0 -0.451104,0.14645 -0.451104,0.32505 0,0.4373 -2.182097,0.41761 -2.453887,-0.0238 -0.118273,-0.1913 -0.440745,-0.26076 -0.71698,-0.15479 -0.276235,0.10597 -0.757423,-0.0397 -1.069418,-0.32068 -0.311955,-0.28219 -0.866329,-0.53588 -1.231824,-0.56339 -0.365535,-0.0278 -0.594739,-0.16272 -0.509408,-0.30124 0.08533,-0.13811 0.0079,-0.52278 -0.167884,-0.85482 -0.221861,-0.41463 -0.181775,-1.27909 0.128195,-2.76088 0.248453,-1.18646 0.450946,-2.41856 0.45047,-2.73794 -6.75e-4,-0.3191 0.06191,-1.79513 0.138911,-3.27937 0.126607,-2.44512 -0.211939,-4.51799 -0.84077,-5.14662 -0.116289,-0.11629 -0.07541,-0.46587 0.09089,-0.77668 0.393714,-0.73571 0.11867,-0.97666 -1.111607,-0.97348 -1.076601,0.003 -1.816601,1.01425 -1.816601,2.48325 0,0.40114 -0.129783,0.80954 -0.288538,0.90765 -0.158756,0.098 -0.382999,0.68161 -0.498334,1.29691 -0.115495,0.61526 -0.354026,1.16674 -0.530324,1.22548 -0.176219,0.0587 -0.386967,0.54524 -0.46825,1.08112 -0.271472,1.78894 -0.749207,3.42817 -1.134388,3.89229 -0.209558,0.25243 -0.348072,0.72437 -0.307589,1.04815 0.04048,0.32426 -0.0036,0.80842 -0.09803,1.07684 -0.331402,0.94249 -0.881054,3.76005 -1.087119,5.57462 -0.187332,1.64888 -0.334974,1.92674 -1.469085,2.76557 -0.693524,0.51282 -1.264449,1.08029 -1.268656,1.26087 -0.01191,0.48842 -1.074816,1.05625 -1.634469,0.87272 z m 0.976069,-0.71313 c 0,-0.17899 -0.06469,-0.32505 -0.143277,-0.32505 -0.07898,0 -0.234164,0.14645 -0.3445,0.32505 -0.110732,0.179 -0.04604,0.32545 0.143277,0.32545 0.189316,0 0.3445,-0.14645 0.3445,-0.32545 z m 58.564209,-2.1551 c -0.508177,-0.29053 -1.332277,-0.40686 -2.196146,-0.31077 -0.761273,0.0849 -1.382762,0.0159 -1.382762,-0.15439 0,-0.16947 -0.209161,-0.30838 -0.46444,-0.30838 -0.255596,0 -0.758971,-0.37427 -1.118949,-0.83208 -0.359979,-0.45765 -0.947891,-0.85422 -1.306361,-0.88125 -0.358391,-0.0278 -0.78842,-0.34807 -0.955352,-0.71329 -0.722021,-1.5801 -1.153122,-2.63407 -1.174712,-2.87225 -0.01191,-0.14089 -0.173044,-0.36037 -0.356407,-0.48801 -0.664115,-0.46274 -2.107005,-3.73425 -2.107005,-4.77736 0,-0.58787 -0.205589,-1.23956 -0.457058,-1.44817 -0.539015,-0.44741 -0.934039,1.25397 -0.839817,3.61705 0.104779,2.63126 0.04723,2.81093 -1.061956,3.30228 -1.609465,0.71305 -2.196147,0.86875 -2.196147,0.58291 0,-0.14328 -0.402644,-0.46051 -0.894747,-0.70535 -2.610935,-1.29906 -3.018739,-1.83438 -2.505521,-3.28898 0.579299,-1.64189 0.599144,-2.45206 0.06549,-2.66749 -0.323465,-0.13018 -0.323068,-0.16908 0.0026,-0.18972 0.279807,-0.0198 0.319496,-0.20559 0.12502,-0.59505 -0.614622,-1.23004 -0.996073,-2.81434 -0.75778,-3.14729 0.241308,-0.33696 0.236149,-1.29243 -0.02778,-5.00251 -0.06747,-0.94821 -0.01191,-1.79212 0.121845,-1.87523 0.284967,-0.17621 -0.205191,-2.07148 -0.651215,-2.51766 -0.870696,-0.870817 0.674036,-4.131856 1.957457,-4.131856 0.316321,0 0.655264,-0.13018 0.753613,-0.288936 0.457097,-0.739642 1.8347,-0.680784 3.061087,0.130974 1.57819,1.044453 1.935628,2.756673 2.438725,11.681598 0.09367,1.66281 0.757701,1.26334 1.958846,-1.17848 0.642088,-1.30533 1.754489,-3.10538 2.471945,-4.00013 0.717496,-0.89475 1.448011,-1.95099 1.623396,-2.34732 0.342912,-0.77457 4.432656,-3.893444 6.037517,-4.604193 0.536833,-0.237736 1.781318,-0.833745 2.765524,-1.324459 0.984206,-0.490753 2.706189,-1.16352 3.826607,-1.49516 2.35256,-0.696303 3.170588,-1.590018 2.83863,-3.101411 -0.141292,-0.643119 -0.08216,-0.955114 0.181379,-0.955114 0.289332,0 0.29727,-0.113113 0.03175,-0.434395 -0.198445,-0.238927 -0.399231,-1.849226 -0.44654,-3.578551 -0.04723,-1.729246 -0.205589,-3.144275 -0.352041,-3.144513 -0.146452,-2.38e-4 -0.157962,-0.329815 -0.02778,-0.732419 0.361963,-1.102955 0.168281,-2.636376 -0.371488,-2.938449 -0.353629,-0.19765 -0.430705,-0.624862 -0.294492,-1.633675 0.312748,-2.316046 0.228608,-4.992826 -0.180982,-5.757829 -0.258374,-0.482697 -0.269487,-0.65459 -0.03175,-0.508217 0.234165,0.144865 0.357994,-0.170265 0.357994,-0.90971 0,-0.621965 -0.176615,-1.189794 -0.39292,-1.26179 -0.260756,-0.08732 -0.153993,-0.387363 0.318305,-0.894072 0.482141,-0.517543 0.65074,-1.003097 0.523814,-1.508814 -0.154786,-0.616765 -0.02778,-0.78457 0.739286,-0.971068 0.509526,-0.12383 1.209265,-0.418917 1.554956,-0.655582 0.681538,-0.466464 1.48631,-0.0893 1.48631,0.696144 0,0.227814 0.498493,0.85216 1.107797,1.387167 1.038857,0.912131 1.119664,1.131769 1.29874,3.531282 0.261947,3.507309 0.322671,3.932377 0.602994,4.212621 0.134149,0.133751 0.244087,0.573703 0.244087,0.976823 0,0.403081 0.217495,1.586525 0.483332,2.629947 0.654192,2.567555 1.366965,10.168339 1.398359,14.911323 0.0079,0.894747 0.01985,3.658406 0.03175,6.141542 0.02381,5.537512 0.245278,6.059342 2.573631,6.059342 1.54219,0 1.54219,0 3.78112,-2.93578 2.24139,-2.939087 4.14229,-4.872771 4.79014,-4.872771 0.18971,0 0.73381,-0.275838 1.20876,-0.612638 1.43904,-1.020759 3.06295,-1.833787 4.60523,-2.305569 3.09787,-0.947652 3.14824,-1.084222 3.08819,-8.376941 -0.0397,-4.692182 -0.15836,-6.436153 -0.44781,-6.532716 -0.28933,-0.09644 -0.25083,-0.35204 0.14328,-0.953566 0.38101,-0.581482 0.43134,-0.888039 0.17225,-1.048263 -0.38022,-0.234959 -0.56906,-3.959287 -0.22861,-4.510209 0.10637,-0.17225 -0.0159,-0.487142 -0.27147,-0.699517 -0.2556,-0.211939 -0.38499,-0.594897 -0.28695,-0.850216 0.098,-0.255597 0.0671,-0.720433 -0.0683,-1.033618 -0.44578,-1.030245 -0.48833,-1.786875 -0.12502,-2.224524 0.19686,-0.23734 0.2687,-0.575331 0.15995,-0.75155 -0.10875,-0.176218 -0.26949,-1.02445 -0.35681,-1.885064 -0.46027,-4.534578 -0.59084,-5.359988 -0.93534,-5.912458 -0.71798,-1.151415 -0.47905,-3.607326 0.41153,-4.22933 1.23385,-0.861845 2.64939,-1.161457 2.64939,-0.560805 0,0.259566 0.64939,1.004527 1.44305,1.654909 1.55001,1.270085 1.96738,2.307315 1.84181,4.577402 -0.0738,1.337516 1.29949,10.076301 1.91372,12.176123 0.18296,0.62514 0.33338,1.869625 0.33418,2.765563 9.9e-4,0.895937 0.15478,2.180033 0.34212,2.853712 0.18693,0.67364 0.39331,3.016199 0.45868,5.205717 0.19725,6.630748 0.50461,13.034991 0.67388,14.050035 0.0881,0.527505 -0.081,1.684993 -0.37585,2.572124 -0.64213,1.93324 -0.45675,5.43091 0.38141,7.19738 0.35521,0.74861 0.46563,1.46099 0.31671,2.04291 -0.12581,0.49139 -0.26671,1.33267 -0.31275,1.86951 -0.052,0.6066 -0.28933,1.01611 -0.62621,1.08203 -0.29846,0.0584 -0.45642,0.24528 -0.35124,0.41511 0.10517,0.17027 -0.2433,0.46047 -0.77386,0.6455 -0.73,0.25441 -0.92475,0.49008 -0.79985,0.96766 0.11272,0.43094 -3.6e-4,0.63129 -0.35641,0.63129 -0.28695,0 -0.7238,0.47583 -0.97091,1.05739 -0.24726,0.5816 -0.83346,1.46631 -1.30306,1.96599 -0.46956,0.49969 -0.94408,1.26834 -1.05446,1.70809 -0.11033,0.43976 -0.40443,0.79958 -0.65344,0.79958 -0.24885,0 -0.45277,0.13653 -0.45277,0.30322 0,0.16669 -0.31195,0.40252 -0.69372,0.52362 -0.53215,0.16867 -0.59121,0.28337 -0.25361,0.49222 0.74901,0.46297 0.079,0.70432 -0.69047,0.24845 -0.57362,-0.33934 -0.75564,-0.3445 -0.87216,-0.0238 -0.081,0.22384 -0.35482,0.40669 -0.60824,0.40669 -0.25361,0 -0.4609,0.15756 -0.4609,0.35006 0,0.19249 -0.42094,0.306 -0.93539,0.25162 -0.51449,-0.054 -1.1615,0.0893 -1.43785,0.3191 -0.41705,0.34609 -0.56545,0.31712 -0.87296,-0.17026 -0.27266,-0.43214 -0.41689,-0.47631 -0.54592,-0.16709 -0.11946,0.28615 -0.29965,0.31711 -0.56382,0.098 -0.21353,-0.17701 -0.89479,-0.41075 -1.51378,-0.51882 -0.61902,-0.10795 -1.17455,-0.33616 -1.2346,-0.5067 -0.0599,-0.17067 -0.24131,-0.22861 -0.40248,-0.12899 -0.16154,0.0996 -0.62173,-0.12502 -1.02315,-0.49857 -0.40137,-0.37387 -1.06211,-0.7633 -1.46829,-0.86526 -0.40621,-0.1016 -0.73853,-0.30521 -0.73853,-0.4523 0,-0.14645 -0.49067,-0.78715 -1.09033,-1.42296 -0.5997,-0.63586 -1.01528,-1.23123 -0.92352,-1.32296 0.0917,-0.0917 -0.22305,-0.50166 -0.69912,-0.91093 -0.47627,-0.4092 -0.86598,-0.97076 -0.86598,-1.24779 0,-0.36553 -0.29012,-0.48487 -1.05739,-0.43522 -1.897686,0.12303 -4.303231,0.55544 -4.666265,0.83914 -0.19527,0.15241 -0.434951,0.19765 -0.532308,0.10042 -0.282188,-0.28219 -1.552591,1.50909 -1.552591,2.18888 0,0.33934 -0.219479,0.70134 -0.488015,0.80433 -0.268297,0.1032 -0.488054,0.40344 -0.488054,0.66761 0,0.26433 -0.17741,0.42122 -0.394111,0.34887 -0.216702,-0.0726 -0.771378,0.59851 -1.232365,1.49067 -0.460986,0.89205 -1.125458,1.78053 -1.476546,1.97425 -0.351247,0.19328 -1.11514,0.69011 -1.697773,1.10311 -0.582633,0.41297 -1.189517,0.67039 -1.348669,0.57208 -0.159153,-0.098 -0.379426,0.0564 -0.489563,0.34291 -0.150421,0.39213 -0.462019,0.47305 -1.25417,0.32585 -0.656216,-0.12185 -1.405702,-0.0119 -1.985914,0.29012 -0.512542,0.26711 -0.95178,0.47143 -0.97603,0.45381 -0.02381,-0.0198 -0.410185,-0.24052 -0.857558,-0.49643 z m 5.002113,-7.3548 c 1.747106,-1.83601 3.7816,-5.26914 3.782274,-6.38233 1.19e-4,-0.24091 0.2679,-0.82644 0.595017,-1.30144 2.138184,-3.10463 1.468632,-12.824957 -0.822791,-11.945649 -0.232181,0.0889 -0.748494,0.04088 -1.147605,-0.106764 -0.570052,-0.211145 -0.801161,-0.121448 -1.077832,0.417051 -0.221861,0.431538 -0.615932,0.656773 -1.064179,0.607955 -0.39173,-0.04247 -0.712019,0.07581 -0.712019,0.263537 0,0.18733 -0.160343,0.2417 -0.356407,0.12026 -0.196063,-0.12145 -0.798898,0.10716 -1.339937,0.50706 -0.806161,0.59605 -1.040921,0.64697 -1.301162,0.28219 -0.243689,-0.34172 -0.275044,-0.31275 -0.134545,0.12502 0.10081,0.31314 0.07223,0.56942 -0.0635,0.56942 -0.853709,0 -2.972105,2.58954 -3.46004,4.22956 -0.292904,0.98421 -0.745953,2.44833 -1.007027,3.25362 -2.593234,7.99934 3.124669,14.59941 8.109636,9.36075 z m 27.961615,-1.26841 c 0.98318,-0.50759 4.48267,-4.201 4.28442,-4.5218 -0.0889,-0.14368 0.0238,-0.32267 0.24726,-0.39792 0.40689,-0.13574 0.47103,-9.10877 0.0742,-10.35972 -0.59422,-1.87253 -3.21627,-1.36709 -5.55212,1.07025 -0.82327,0.85903 -1.63768,1.56184 -1.80985,1.56184 -0.17225,0 -0.21869,0.1528 -0.1032,0.33934 0.1155,0.18653 0.052,0.52976 -0.14089,0.76218 -4.22497,5.09078 -1.89134,14.07103 3.00028,11.54559 z m -44.270306,-6.05883 c 0.170265,-1.36626 0.115495,-1.54251 -0.384586,-1.23354 -0.417924,0.25798 -0.469162,2.45357 -0.05715,2.45357 0.15955,0 0.358391,-0.54901 0.441857,-1.22003 z m 70.535286,9.47834 c -0.55954,-0.47083 -1.10256,-0.77084 -1.20667,-0.66669 -0.10438,0.10398 -0.42737,-0.0873 -0.71833,-0.42559 -0.29091,-0.33815 -1.11462,-0.69241 -1.83041,-0.78726 -0.71575,-0.0949 -1.33803,-0.17821 -1.38276,-0.18456 -0.0448,-0.008 -0.0814,-0.3695 -0.0814,-0.80644 0,-0.43681 -0.11947,-0.86815 -0.26592,-0.95848 -0.14605,-0.0901 -0.21432,-0.84673 -0.15161,-1.68083 0.0627,-0.8341 -0.0397,-1.69916 -0.22265,-1.92233 -0.54815,-0.66047 -0.49056,-2.98147 0.096,-3.87694 0.29529,-0.4507 0.41574,-0.89423 0.2679,-0.98571 -0.14804,-0.0913 -0.20836,-1.0874 -0.13375,-2.21309 0.1536,-2.32069 0.18575,-3.95211 0.10121,-5.13769 -0.0317,-0.44738 -0.0572,-2.131099 -0.0564,-3.741636 9.9e-4,-1.610536 -0.0278,-4.868083 -0.0607,-7.23906 -0.0357,-2.370976 0.0651,-4.353397 0.22067,-4.40535 0.26353,-0.08771 0.5077,-12.509033 0.25083,-12.765662 -0.0643,-0.0643 -0.15995,-0.966901 -0.21273,-2.006274 -0.13653,-2.680272 -0.49651,-6.03335 -0.7096,-6.607332 -0.76913,-2.072158 -0.24171,-4.067121 1.28318,-4.853994 0.4921,-0.254009 0.89471,-0.583347 0.89471,-0.732062 0,-0.333386 1.98028,-0.350453 2.4729,-0.02381 0.75837,0.506232 2.133,3.100062 1.97111,3.719328 -0.0917,0.351247 0.0198,1.176141 0.24686,1.832834 0.3986,1.14947 0.45357,5.025767 0.10002,7.050378 -0.0937,0.536872 -0.0159,1.167569 0.17741,1.401575 0.56842,0.694953 0.46249,13.57345 -0.1278,15.517016 -0.0544,0.178997 0.0544,0.618155 0.2421,0.976109 0.4827,0.922013 0.31632,6.532875 -0.21273,7.170319 -0.49488,0.596246 -0.54183,5.168561 -0.0591,5.777871 0.17066,0.21511 0.38498,1.09406 0.47698,1.95289 0.23179,2.16448 0.24171,2.16456 3.01065,0.0238 1.35898,-1.0508 2.89629,-2.22095 3.41622,-2.60041 0.98186,-0.71647 2.17956,-2.094424 2.79501,-3.215636 0.19606,-0.3572 0.38737,-1.747542 0.42471,-3.089623 0.0484,-1.735914 0.25084,-2.750799 0.70087,-3.516239 0.34807,-0.591762 0.63272,-1.373951 0.63272,-1.738097 0,-0.364344 0.29568,-1.037706 0.65645,-1.496629 0.36117,-0.459161 0.57585,-1.088151 0.47738,-1.398479 -0.11271,-0.354819 0.16749,-0.910265 0.75453,-1.497423 0.51341,-0.513456 0.99401,-1.078546 1.06803,-1.255757 0.0738,-0.177013 1.01298,-0.907884 2.08664,-1.623634 1.07367,-0.71579 2.02537,-1.385342 2.11483,-1.487858 0.76571,-0.877403 4.95742,0.08335 5.15523,1.181618 0.0623,0.347278 0.43539,0.997621 0.82843,1.444955 0.92038,1.047469 1.82489,3.058269 1.82489,4.056842 0,0.429632 0.16709,1.193326 0.37149,1.697098 0.90392,2.228334 0.51457,6.935003 -0.57362,6.935003 -0.26314,0 -0.44861,0.34053 -0.44861,0.823505 0,0.541515 -0.43642,1.22476 -1.27457,1.995439 -0.70106,0.644548 -1.20364,1.356885 -1.11692,1.582915 0.0869,0.22583 -0.17741,0.64577 -0.58724,0.93272 -0.93833,0.65725 -1.45873,0.67622 -0.92555,0.0357 0.22266,-0.26829 0.60677,-0.48805 0.85324,-0.48805 0.24646,0 0.4482,-0.14645 0.4482,-0.32505 0,-0.179 -0.2929,-0.32505 -0.65074,-0.32505 -0.35799,0 -0.6507,0.16351 -0.6507,0.36315 0,0.20638 -0.33179,0.30005 -0.76829,0.2167 -0.42737,-0.0818 -0.76552,0.0119 -0.76211,0.20599 0.0238,1.22111 -0.1278,1.52596 -0.66574,1.36129 -0.40098,-0.12264 -0.84518,0.21471 -1.50203,1.14018 -1.60923,2.26818 0.17185,6.30812 3.7583,8.52383 3.62773,2.24131 15.37339,1.71218 17.89153,-0.80596 1.91971,-1.91976 6.4677,-2.18016 5.5112,-0.31553 -0.15082,0.29409 -0.20598,0.7275 -0.12184,0.96253 0.0841,0.23496 -0.096,0.60927 -0.40023,0.83161 -0.80759,0.59049 -0.50587,1.90379 0.5537,2.41003 1.42154,0.67915 1.64551,3.45968 0.31434,3.9034 -0.23456,0.0782 -0.3068,-0.0722 -0.18575,-0.38736 0.13455,-0.35085 0.0119,-0.51524 -0.37942,-0.51524 -0.31751,0 -0.48079,0.0964 -0.36315,0.21392 0.44955,0.4496 -0.4879,1.11974 -0.98699,0.70559 -0.36672,-0.30442 -0.52572,-0.29926 -0.72496,0.0238 -0.19328,0.31275 -0.30679,0.27902 -0.46717,-0.13931 -0.14328,-0.37267 -0.4365,-0.49349 -0.90309,-0.37148 -0.4671,0.12224 -0.88573,-0.0508 -1.29088,-0.53243 -0.41062,-0.48834 -0.67864,-0.59704 -0.85029,-0.3449 -0.26751,0.39332 -3.04565,1.42106 -3.84094,1.42106 -0.26194,0 -0.47666,0.1659 -0.47666,0.36792 0,0.24171 -0.40705,0.30203 -1.18448,0.17582 -0.65145,-0.10557 -1.44785,-0.0512 -1.76973,0.12145 -0.38696,0.20718 -0.65681,0.19725 -0.79659,-0.0278 -0.14685,-0.23734 -0.34331,-0.23298 -0.64153,0.0159 -0.29767,0.24727 -0.49512,0.25163 -0.6409,0.0159 -0.11629,-0.18773 -0.3572,-0.34093 -0.53624,-0.34093 -0.17899,0 -0.23496,0.14645 -0.12422,0.32505 0.11073,0.179 -0.0278,0.32506 -0.3064,0.32506 -0.27902,0 -0.50723,-0.15003 -0.50723,-0.33299 0,-0.18297 -0.36831,-0.0913 -0.81894,0.2036 -0.68725,0.45035 -0.78882,0.45821 -0.63185,0.0492 0.13137,-0.34251 -0.0845,-0.54028 -0.7265,-0.66498 -0.50246,-0.0976 -0.9525,-0.0726 -1.00008,0.0552 -0.0476,0.1282 -0.6128,0.17106 -1.25616,0.0961 -0.81279,-0.0949 -1.03461,-0.22226 -0.72694,-0.41713 0.30918,-0.19567 0.1663,-0.28219 -0.47329,-0.28576 -0.50385,-0.003 -1.23591,-0.18058 -1.62681,-0.3953 -0.39093,-0.21472 -1.0608,-0.34768 -1.48877,-0.29608 -0.60609,0.0734 -0.73278,-0.0238 -0.57307,-0.44011 0.11986,-0.31275 0.0714,-0.45178 -0.11668,-0.33577 -0.17702,0.10915 -0.32148,0.0441 -0.32148,-0.14605 0,-0.18972 -0.36157,-0.3445 -0.80323,-0.3445 -0.58291,0 -0.75139,-0.13455 -0.61446,-0.49171 0.13494,-0.35204 0.0397,-0.43451 -0.33537,-0.29052 -0.33775,0.12978 -0.52429,0.0278 -0.52429,-0.28457 0,-0.26711 -0.48353,-0.71524 -1.07458,-0.99572 -1.25068,-0.59343 -2.32061,-1.67463 -2.06557,-2.08732 0.0976,-0.15756 -0.14566,-0.64272 -0.54021,-1.07787 -0.3945,-0.43523 -0.89419,-1.18991 -1.11029,-1.67705 -0.22028,-0.49711 -0.75469,-0.97659 -1.21742,-1.09268 -0.45341,-0.11391 -0.82442,-0.33775 -0.82442,-0.49702 0,-1.31791 -3.38261,1.5666 -3.79454,3.23571 -0.11787,0.47659 -0.55648,1.41265 -0.97519,2.08014 -0.41872,0.66749 -0.76136,1.34018 -0.76136,1.4948 0,0.15479 -0.37823,0.70663 -0.84045,1.22655 -0.4623,0.51996 -0.98905,1.34803 -1.17062,1.8401 -0.18138,0.4921 -0.47262,0.89474 -0.64685,0.89474 -0.49953,0 -1.30783,0.93869 -1.09911,1.27644 0.44797,0.7248 -0.5029,0.60815 -1.43487,-0.17622 z m 35.61278,-1.10045 c -0.11073,-0.179 -0.34767,-0.32505 -0.52647,-0.32505 -0.179,0 -0.23496,0.14645 -0.12423,0.32505 0.11073,0.179 0.34768,0.32505 0.52643,0.32505 0.179,0 0.23496,-0.14645 0.12423,-0.32505 z M 158.98496,96.006488 c 1.22388,-0.639388 2.55588,-2.151496 2.74818,-3.119945 0.0889,-0.447334 0.24805,-1.032984 0.35362,-1.3014 0.11074,-0.280997 -0.20003,-0.946025 -0.73345,-1.568783 -1.27092,-1.48385 -2.32458,-0.515163 -3.08736,2.838511 -0.82803,3.640545 -0.76298,3.925789 0.71881,3.151617 z M 59.859207,78.7151 c -2.496631,-2.404196 -2.205552,-4.048508 0.716623,-4.048508 1.468649,0 4.548787,3.57748 4.103199,4.765726 -0.730673,1.94825 -2.293424,1.715673 -4.819822,-0.717218 z"
       style="fill:#ffffff;stroke-width:0.32535669" />
  </g>
</svg>
